<?xml version="1.0" standalone="no"?>
<!DOCTYPE svg PUBLIC "-//W3C//DTD SVG 20010904//EN"
 "http://www.w3.org/TR/2001/REC-SVG-20010904/DTD/svg10.dtd">
<svg version="1.0" xmlns="http://www.w3.org/2000/svg"
 width="244.000000pt" height="130.000000pt" viewBox="0 0 244.000000 130.000000"
 preserveAspectRatio="xMidYMid meet">
<metadata>
Created by potrace 1.16, written by Peter Selinger 2001-2019
</metadata>
<g transform="translate(0.000000,130.000000) scale(0.100000,-0.100000)"
fill="#000000" stroke="none">
<path d="M632 795 c-18 -8 -22 -16 -18 -35 3 -14 9 -74 12 -135 7 -133 8 -139
31 -127 11 6 27 5 48 -4 61 -25 125 15 144 92 11 43 4 101 -16 130 -19 26 -61
44 -103 44 -36 0 -48 5 -60 23 -13 19 -19 21 -38 12z m148 -105 c25 -25 27
-95 4 -128 -36 -52 -104 -12 -104 61 0 74 56 111 100 67z"/>
<path d="M903 753 c-9 -3 -13 -35 -13 -107 0 -90 3 -107 21 -130 21 -26 24
-27 103 -22 44 3 82 5 84 5 1 1 2 58 2 127 l0 125 -27 -3 c-28 -3 -28 -3 -33
-96 -5 -94 -13 -111 -51 -112 -31 0 -39 23 -39 110 0 97 -10 118 -47 103z"/>
<path d="M1237 754 c-4 -4 -24 -7 -44 -8 l-38 -1 -3 -121 c-2 -106 0 -122 14
-128 32 -12 44 13 44 93 0 87 5 99 46 110 36 9 42 54 9 59 -12 2 -24 0 -28 -4z"/>
<path d="M1317 752 c-16 -3 -17 -14 -11 -125 4 -67 10 -126 15 -131 4 -5 15
-6 23 -3 13 5 16 22 16 81 0 87 11 122 40 131 39 12 49 -10 52 -113 3 -96 3
-97 28 -97 24 0 25 2 28 80 3 102 8 122 31 130 44 14 51 -1 51 -105 0 -102 5
-116 40 -105 18 6 20 15 20 111 0 98 -2 107 -25 129 -26 27 -57 31 -101 15
-19 -8 -36 -7 -60 2 -27 9 -42 10 -66 0 -17 -6 -38 -8 -47 -3 -9 4 -24 6 -34
3z"/>
<path d="M1743 746 c-48 -22 -59 -86 -14 -86 10 0 23 12 29 26 10 20 18 25 44
22 37 -4 61 -33 38 -48 -8 -5 -34 -10 -57 -10 -58 0 -97 -34 -97 -83 0 -68 60
-101 130 -72 26 10 41 12 48 5 5 -5 23 -10 38 -10 20 0 28 5 28 18 0 10 -4 22
-9 27 -5 6 -11 47 -13 92 -3 68 -7 86 -24 104 -28 27 -98 34 -141 15z"/>
</g>
</svg>
